<?xml version="1.0" encoding="utf-8"?>
<!-- Generator: Adobe Illustrator 15.1.0, SVG Export Plug-In . SVG Version: 6.00 Build 0)  -->
<!DOCTYPE svg PUBLIC "-//W3C//DTD SVG 1.1//EN" "http://www.w3.org/Graphics/SVG/1.1/DTD/svg11.dtd">
<svg version="1.1" id="Layer_1" xmlns="http://www.w3.org/2000/svg" xmlns:xlink="http://www.w3.org/1999/xlink" x="0px" y="0px"
	 width="1400px" height="980px" viewBox="0 0 1400 980" enable-background="new 0 0 1400 980" xml:space="preserve">
<g>
	<g>
		<path d="M672.071,538.738h-241c-0.966,0-1.859-0.522-2.332-1.368c-0.473-0.841-0.454-1.87,0.05-2.695l35.852-58.758
			c0.485-0.796,1.35-1.282,2.282-1.282H636.22c0.932,0,1.796,0.486,2.282,1.282l35.851,58.758c0.504,0.825,0.522,1.854,0.05,2.695
			C673.93,538.216,673.037,538.738,672.071,538.738z M435.834,533.391h231.473l-32.59-53.408H468.424L435.834,533.391z"/>
		<path d="M672.071,592.517h-241c-1.478,0-2.674-1.196-2.674-2.674v-53.778c0-1.479,1.196-2.674,2.674-2.674h241
			c1.478,0,2.674,1.195,2.674,2.674v53.778C674.745,591.32,673.549,592.517,672.071,592.517z M433.746,587.169h235.651v-48.431
			H433.746V587.169z"/>
		<path d="M636.22,479.983H466.923c-1.478,0-2.674-1.196-2.674-2.674v-44.816c0-1.478,1.196-2.674,2.674-2.674h37.16v-12.595
			c0-1.478,1.196-2.674,2.674-2.674h89.298c1.478,0,2.674,1.196,2.674,2.674v12.595h37.491c1.478,0,2.674,1.196,2.674,2.674v44.816
			C638.894,478.787,637.698,479.983,636.22,479.983z M469.597,474.635h163.949v-39.468h-37.491c-1.478,0-2.674-1.196-2.674-2.674
			v-12.595h-83.95v12.595c0,1.478-1.196,2.674-2.674,2.674h-37.16V474.635z"/>
		<g>
			<path d="M473.148,608.451h-24.4c-1.478,0-2.674-1.196-2.674-2.674v-15.935c0-1.479,1.196-2.674,2.674-2.674h24.4
				c1.478,0,2.674,1.195,2.674,2.674v15.935C475.822,607.255,474.626,608.451,473.148,608.451z M451.422,603.104h19.052v-10.587
				h-19.052V603.104z"/>
			<path d="M654.395,608.451h-24.4c-1.478,0-2.674-1.196-2.674-2.674v-15.935c0-1.479,1.196-2.674,2.674-2.674h24.4
				c1.478,0,2.674,1.195,2.674,2.674v15.935C657.068,607.255,655.873,608.451,654.395,608.451z M632.668,603.104h19.053v-10.587
				h-19.053V603.104z"/>
		</g>
	</g>
	<g>
		<path d="M963.318,462.129h-179.16c-1.479,0-2.674-1.196-2.674-2.674v-53.429c0-1.478,1.195-2.674,2.674-2.674h179.16
			c1.478,0,2.674,1.196,2.674,2.674v53.429C965.992,460.933,964.796,462.129,963.318,462.129z M786.832,456.781h173.812v-48.08
			H786.832V456.781z"/>
		<path d="M904.489,462.129h-61.503c-1.478,0-2.674-1.196-2.674-2.674v-53.429c0-1.478,1.196-2.674,2.674-2.674h61.503
			c1.479,0,2.674,1.196,2.674,2.674v53.429C907.163,460.933,905.968,462.129,904.489,462.129z M845.661,456.781h56.154v-48.08
			h-56.154V456.781z"/>
		<path d="M963.318,606.801h-179.16c-1.479,0-2.674-1.196-2.674-2.674v-77.359c0-1.473,1.195-2.674,2.674-2.674h179.16
			c1.478,0,2.674,1.201,2.674,2.674v77.359C965.992,605.604,964.796,606.801,963.318,606.801z M786.832,601.453h173.812v-72.012
			H786.832V601.453z"/>
		<path d="M904.489,606.801h-61.503c-1.478,0-2.674-1.196-2.674-2.674v-77.359c0-1.473,1.196-2.674,2.674-2.674h61.503
			c1.479,0,2.674,1.201,2.674,2.674v77.359C907.163,605.604,905.968,606.801,904.489,606.801z M845.661,601.453h56.154v-72.012
			h-56.154V601.453z"/>
		<path d="M963.318,435.415h-58.829c-1.478,0-2.674-1.196-2.674-2.674s1.196-2.674,2.674-2.674h58.829
			c1.478,0,2.674,1.196,2.674,2.674S964.796,435.415,963.318,435.415z"/>
		<path d="M828.614,435.415c-2.063,0-3.734-1.676-3.734-3.734c0-2.058,1.671-3.732,3.734-3.732c2.058,0,3.729,1.674,3.729,3.732
			C832.343,433.738,830.672,435.415,828.614,435.415z M828.614,430.067c-0.894,0-1.619,0.723-1.619,1.614
			c0,0.89,0.726,1.616,1.619,1.616c0.888,0,1.613-0.726,1.613-1.616C830.228,430.79,829.502,430.067,828.614,430.067z"/>
		<path d="M829.674,563.128c-2.063,0-3.734-1.682-3.734-3.739s1.672-3.729,3.734-3.729c2.058,0,3.729,1.671,3.729,3.729
			S831.731,563.128,829.674,563.128z M829.674,557.78c-0.893,0-1.619,0.721-1.619,1.608c0,0.894,0.727,1.619,1.619,1.619
			c0.888,0,1.614-0.726,1.614-1.619C831.288,558.501,830.562,557.78,829.674,557.78z"/>
		<path d="M892.514,563.128c-2.063,0-3.734-1.682-3.734-3.739s1.672-3.729,3.734-3.729c2.058,0,3.729,1.671,3.729,3.729
			S894.571,563.128,892.514,563.128z M892.514,557.78c-0.893,0-1.619,0.721-1.619,1.608c0,0.894,0.727,1.619,1.619,1.619
			c0.888,0,1.614-0.726,1.614-1.619C894.128,558.501,893.401,557.78,892.514,557.78z"/>
		<path d="M948.387,563.128c-2.059,0-3.734-1.682-3.734-3.739s1.676-3.729,3.734-3.729c2.058,0,3.733,1.671,3.733,3.729
			S950.444,563.128,948.387,563.128z M948.387,557.78c-0.889,0-1.614,0.721-1.614,1.608c0,0.894,0.726,1.619,1.614,1.619
			c0.893,0,1.613-0.726,1.613-1.619C950,558.501,949.279,557.78,948.387,557.78z"/>
		<path d="M963.318,529.441h-179.16c-1.479,0-2.674-1.19-2.674-2.674v-11.771c0-1.483,1.195-2.674,2.674-2.674h179.16
			c1.478,0,2.674,1.19,2.674,2.674v11.771C965.992,528.251,964.796,529.441,963.318,529.441z M786.832,524.094h173.812v-6.424
			H786.832V524.094z"/>
		<path d="M854.686,435.415c-2.063,0-3.734-1.676-3.734-3.734c0-2.058,1.672-3.732,3.734-3.732c2.058,0,3.729,1.674,3.729,3.732
			C858.415,433.738,856.743,435.415,854.686,435.415z M854.686,430.067c-0.893,0-1.619,0.723-1.619,1.614
			c0,0.89,0.727,1.616,1.619,1.616c0.888,0,1.614-0.726,1.614-1.616C856.3,430.79,855.573,430.067,854.686,430.067z"/>
		<path d="M793.742,515.884c-1.479,0-2.675-1.196-2.675-2.674v-24.767c0-6.168,10.007-7.813,15.925-7.813
			c2.476,0,6.068,0.261,9.103,1.504c4.591,1.88,5.275,4.982,5.275,6.664v8.91c0,1.483-1.196,2.674-2.674,2.674
			c-1.479,0-2.675-1.19-2.675-2.674v-8.91c0-0.838-1.451-1.726-3.697-2.264c-6.622-1.58-15.109,0.415-15.939,2.063l0.031,24.612
			C796.416,514.688,795.22,515.884,793.742,515.884z"/>
	</g>
	<g>
		<path d="M1133.709,590.861l-0.805-0.006c-47.73-0.434-86.211-39.624-85.777-87.35c0.434-47.299,39.259-85.778,86.546-85.778
			l0.804,0.002c23.121,0.209,44.779,9.412,60.98,25.907c16.201,16.499,25.007,38.319,24.798,61.44
			C1219.826,552.38,1181.001,590.861,1133.709,590.861z M1133.673,423.076c-44.367,0-80.79,36.102-81.198,80.477
			c-0.407,44.785,35.697,81.542,80.478,81.955l0.757,0.005c44.367,0,80.795-36.104,81.197-80.481
			c0.199-21.695-8.063-42.166-23.267-57.646c-15.198-15.478-35.515-24.111-57.21-24.307L1133.673,423.076z"/>
		<path d="M1133.688,509.694c-0.006,0-0.037,0-0.048,0c-1.446-0.016-2.794-0.59-3.807-1.618c-1.008-1.029-1.562-2.397-1.546-3.839
			c0.026-2.946,2.449-5.349,5.4-5.349c1.493,0.011,2.846,0.585,3.859,1.619c1.008,1.034,1.562,2.393,1.546,3.839
			C1139.067,507.292,1136.645,509.694,1133.688,509.694z"/>
		<g>
			<path d="M1134.252,445.398c-0.01,0-0.016,0-0.025,0c-1.479-0.013-2.664-1.222-2.648-2.697l0.104-11.592
				c0.011-1.47,1.206-2.65,2.674-2.65c0.005,0,0.016,0,0.021,0c1.478,0.013,2.663,1.222,2.652,2.698l-0.104,11.592
				C1136.91,444.218,1135.715,445.398,1134.252,445.398z"/>
			<path d="M1133.03,580.123c-0.011,0-0.016,0-0.026,0c-1.478-0.011-2.664-1.222-2.647-2.695l0.104-11.594
				c0.016-1.479,1.269-2.633,2.694-2.653c1.479,0.011,2.664,1.222,2.653,2.695l-0.104,11.6
				C1135.688,578.942,1134.492,580.123,1133.03,580.123z"/>
			<path d="M1206.854,507.632c-0.011,0-0.016,0-0.026,0l-11.595-0.104c-1.478-0.016-2.663-1.222-2.653-2.7
				c0.016-1.468,1.212-2.647,2.675-2.647c0.01,0,0.016,0,0.025,0l11.595,0.104c1.478,0.01,2.663,1.222,2.653,2.694
				C1209.512,506.451,1208.315,507.632,1206.854,507.632z"/>
			<path d="M1072.128,506.41c-0.011,0-0.016,0-0.026,0l-11.594-0.104c-1.479-0.016-2.664-1.223-2.648-2.7
				c0.011-1.468,1.207-2.648,2.674-2.648c0.006,0,0.016,0,0.021,0l11.594,0.104c1.479,0.011,2.664,1.223,2.653,2.695
				C1074.786,505.229,1073.59,506.41,1072.128,506.41z"/>
		</g>
		<path d="M1133.954,507.852c-0.13,0-0.256-0.011-0.386-0.031c-0.862-0.126-1.614-0.658-2.006-1.442l-24.453-48.649
			c-0.663-1.319-0.13-2.928,1.186-3.591c1.327-0.668,2.931-0.133,3.594,1.188l22.734,45.234l18.384-19.533
			c1.019-1.076,2.705-1.123,3.781-0.115c1.076,1.013,1.128,2.705,0.115,3.781l-21.001,22.317
			C1135.391,507.548,1134.686,507.852,1133.954,507.852z"/>
	</g>
	<g>
		<path d="M390.083,811.625h-11.592c-1.478,0-2.674-1.196-2.674-2.674V647.235c0-1.483,1.196-2.675,2.674-2.675h11.592
			c1.478,0,2.674,1.191,2.674,2.675v161.716C392.758,810.429,391.562,811.625,390.083,811.625z M381.166,806.277h6.244V649.909
			h-6.244V806.277z"/>
		<path d="M463.998,811.625h-11.589c-1.478,0-2.674-1.196-2.674-2.674v-65.357c0-1.473,1.196-2.674,2.674-2.674h11.589
			c1.478,0,2.674,1.201,2.674,2.674v65.357C466.672,810.429,465.476,811.625,463.998,811.625z M455.083,806.277h6.241v-60.01h-6.241
			V806.277z"/>
		<path d="M467.192,746.268h-77.108c-1.478,0-2.674-1.19-2.674-2.674V726.62c0-1.483,1.196-2.674,2.674-2.674h77.108
			c1.478,0,2.674,1.19,2.674,2.674v16.974C469.866,745.077,468.67,746.268,467.192,746.268z M392.758,740.92h71.76v-11.626h-71.76
			V740.92z"/>
	</g>
	<g>
		<path d="M272.027,536.043h-38.8c-15.29,0-53.486-29.55-53.486-38.7v-19.402c0-1.478,1.196-2.674,2.674-2.674h140.426
			c1.478,0,2.674,1.196,2.674,2.674v19.402C325.515,506.493,287.316,536.043,272.027,536.043z M185.089,480.615v16.728
			c0.964,5.442,34.321,33.353,48.138,33.353h38.8c13.816,0,47.177-27.91,48.146-33.446l-0.005-16.634H185.089z"/>
		<path d="M264.174,591.478H241.08c-1.478,0-2.674-1.201-2.674-2.675v-55.434c0-1.473,1.196-2.674,2.674-2.674h23.095
			c1.478,0,2.674,1.201,2.674,2.674v55.434C266.849,590.276,265.652,591.478,264.174,591.478z M243.753,586.129H261.5v-50.086
			h-17.747V586.129z"/>
		<path d="M249.193,480.615c-1.478,0-2.674-1.196-2.674-2.674v-52.055c0-7.158,13.38-8.468,19.611-5.544
			c3.886,1.823,4.465,4.69,4.465,6.236c0,1.478-1.196,2.674-2.674,2.674s-2.674-1.196-2.674-2.674c0-0.901-1.64-1.617-3.045-1.954
			c-4.541-1.099-9.8,0.261-10.356,1.369l0.021,51.948C251.867,479.419,250.671,480.615,249.193,480.615z"/>
		<path d="M249.193,458.873h-20.81c-1.478,0-2.674-1.196-2.674-2.674s1.196-2.674,2.674-2.674h20.81
			c1.478,0,2.674,1.196,2.674,2.674S250.671,458.873,249.193,458.873z"/>
		<path d="M226.997,465.325h-11.793c-1.478,0-2.674-1.196-2.674-2.674v-12.905c0-1.478,1.196-2.674,2.674-2.674h11.793
			c1.478,0,2.674,1.196,2.674,2.674v12.905C229.67,464.129,228.475,465.325,226.997,465.325z M217.877,459.977h6.445v-7.557h-6.445
			V459.977z"/>
	</g>
	<g>
		<path d="M802.051,712.765H604.327c-1.478,0-2.674-1.196-2.674-2.675v-30.495c0-1.483,1.196-2.674,2.674-2.674h197.724
			c1.479,0,2.675,1.19,2.675,2.674v30.495C804.726,711.568,803.529,712.765,802.051,712.765z M607.001,707.416h192.376v-25.147
			H607.001V707.416z"/>
		<path d="M653.389,697.206c-2.121,0-3.844-1.724-3.844-3.844c0-2.115,1.723-3.839,3.844-3.839c2.118,0,3.841,1.724,3.841,3.839
			C657.23,695.482,655.507,697.206,653.389,697.206z M653.389,691.857c-0.831,0-1.507,0.68-1.507,1.505
			c0,0.835,0.676,1.509,1.507,1.509s1.504-0.674,1.504-1.509C654.894,692.537,654.22,691.857,653.389,691.857z"/>
		<path d="M754.039,698.376c-2.121,0-3.844-1.724-3.844-3.844c0-2.121,1.723-3.845,3.844-3.845c2.115,0,3.838,1.724,3.838,3.845
			C757.877,696.652,756.154,698.376,754.039,698.376z M754.039,693.027c-0.831,0-1.51,0.674-1.51,1.505
			c0,0.83,0.679,1.504,1.51,1.504c0.83,0,1.504-0.674,1.504-1.504C755.543,693.701,754.869,693.027,754.039,693.027z"/>
		<path d="M703.188,712.765c-1.478,0-2.674-1.196-2.674-2.675v-30.495c0-1.483,1.196-2.674,2.674-2.674
			c1.479,0,2.677,1.19,2.677,2.674v30.495C705.864,711.568,704.666,712.765,703.188,712.765z"/>
		<path d="M614.655,811.625h-10.328c-1.478,0-2.674-1.196-2.674-2.674V710.09c0-1.478,1.196-2.674,2.674-2.674h10.328
			c1.478,0,2.674,1.196,2.674,2.674v98.861C617.329,810.429,616.133,811.625,614.655,811.625z M607.001,806.277h4.98v-93.513h-4.98
			V806.277z"/>
		<path d="M802.051,811.625h-10.325c-1.478,0-2.674-1.196-2.674-2.674V710.09c0-1.478,1.196-2.674,2.674-2.674h10.325
			c1.479,0,2.675,1.196,2.675,2.674v98.861C804.726,810.429,803.529,811.625,802.051,811.625z M794.399,806.277h4.978v-93.513
			h-4.978V806.277z"/>
	</g>
	<g>
		<path d="M1015.482,705.776H907.388c-1.478,0-2.674-1.196-2.674-2.674v-43.537c0-1.478,1.196-2.674,2.674-2.674h108.095
			c1.479,0,2.674,1.196,2.674,2.674v43.537C1018.156,704.58,1016.961,705.776,1015.482,705.776z M910.063,700.429h102.746V662.24
			H910.063V700.429z"/>
		<path d="M961.438,684.995c-2.209,0-4.011-1.802-4.011-4.017c0-2.209,1.802-4.011,4.011-4.011c2.21,0,4.012,1.802,4.012,4.011
			C965.449,683.193,963.647,684.995,961.438,684.995z M961.438,679.647c-0.736,0-1.337,0.595-1.337,1.331
			c0,1.468,2.675,1.479,2.675,0C962.775,680.242,962.174,679.647,961.438,679.647z"/>
		<path d="M1015.482,749.313H907.388c-1.478,0-2.674-1.195-2.674-2.674v-43.536c0-1.479,1.196-2.674,2.674-2.674h108.095
			c1.479,0,2.674,1.195,2.674,2.674v43.536C1018.156,748.117,1016.961,749.313,1015.482,749.313z M910.063,743.965h102.746v-38.188
			H910.063V743.965z"/>
		<path d="M961.438,728.531c-2.209,0-4.011-1.802-4.011-4.016c0-2.209,1.802-4.012,4.011-4.012c2.21,0,4.012,1.803,4.012,4.012
			C965.449,726.729,963.647,728.531,961.438,728.531z M961.438,723.184c-0.736,0-1.337,0.596-1.337,1.332
			c0,1.468,2.675,1.478,2.675,0C962.775,723.779,962.174,723.184,961.438,723.184z"/>
		<path d="M1015.482,792.844H907.388c-1.478,0-2.674-1.19-2.674-2.674v-43.531c0-1.478,1.196-2.674,2.674-2.674h108.095
			c1.479,0,2.674,1.196,2.674,2.674v43.531C1018.156,791.653,1016.961,792.844,1015.482,792.844z M910.063,787.496h102.746v-38.184
			H910.063V787.496z"/>
		<path d="M961.438,772.068c-2.209,0-4.011-1.802-4.011-4.017c0-2.209,1.802-4.011,4.011-4.011c2.21,0,4.012,1.802,4.012,4.011
			C965.449,770.267,963.647,772.068,961.438,772.068z M961.438,766.72c-0.736,0-1.337,0.596-1.337,1.332
			c0,1.468,2.675,1.479,2.675,0C962.775,767.315,962.174,766.72,961.438,766.72z"/>
		<path d="M919.218,813.322h-11.83c-1.478,0-2.674-1.196-2.674-2.674V790.17c0-1.473,1.196-2.674,2.674-2.674h11.83
			c1.478,0,2.674,1.201,2.674,2.674v20.479C921.892,812.126,920.695,813.322,919.218,813.322z M910.063,807.975h6.48v-15.131h-6.48
			V807.975z"/>
		<path d="M1015.482,813.322h-11.829c-1.479,0-2.675-1.196-2.675-2.674V790.17c0-1.473,1.196-2.674,2.675-2.674h11.829
			c1.479,0,2.674,1.201,2.674,2.674v20.479C1018.156,812.126,1016.961,813.322,1015.482,813.322z M1006.327,807.975h6.481v-15.131
			h-6.481V807.975z"/>
	</g>
	<g>
		<path d="M483.147,205.675c-2.12,0-3.844-1.723-3.844-3.844c0-2.118,1.724-3.841,3.844-3.841c2.118,0,3.841,1.724,3.841,3.841
			C486.988,203.952,485.265,205.675,483.147,205.675z M483.147,200.328c-0.831,0-1.507,0.673-1.507,1.504s0.676,1.507,1.507,1.507
			s1.504-0.676,1.504-1.507S483.978,200.328,483.147,200.328z"/>
		<path d="M483.147,261.551c-2.12,0-3.844-1.724-3.844-3.844c0-2.118,1.724-3.841,3.844-3.841c2.118,0,3.841,1.724,3.841,3.841
			C486.988,259.827,485.265,261.551,483.147,261.551z M483.147,256.203c-0.831,0-1.507,0.674-1.507,1.504
			c0,0.831,0.676,1.507,1.507,1.507s1.504-0.676,1.504-1.507C484.651,256.876,483.978,256.203,483.147,256.203z"/>
		<path d="M430.836,298.987c-2.121,0-3.844-1.724-3.844-3.844c0-2.118,1.723-3.841,3.844-3.841c2.118,0,3.841,1.724,3.841,3.841
			C434.678,297.264,432.954,298.987,430.836,298.987z M430.836,293.639c-0.831,0-1.507,0.673-1.507,1.504s0.676,1.507,1.507,1.507
			s1.504-0.676,1.504-1.507S431.667,293.639,430.836,293.639z"/>
		<path d="M530.835,345.561h-60.223c-1.478,0-2.674-1.196-2.674-2.674V178.434c0-1.478,1.196-2.674,2.674-2.674h60.223
			c1.478,0,2.674,1.196,2.674,2.674v164.453C533.51,344.365,532.313,345.561,530.835,345.561z M473.287,340.212h54.875V181.108
			h-54.875V340.212z"/>
		<path d="M470.612,345.561H391.06c-1.478,0-2.674-1.196-2.674-2.674v-61.503c0-1.478,1.196-2.674,2.674-2.674h79.552
			c1.479,0,2.674,1.196,2.674,2.674v61.503C473.287,344.365,472.091,345.561,470.612,345.561z M393.734,340.212h74.204v-56.154
			h-74.204V340.212z"/>
		<path d="M470.612,284.058H391.06c-1.478,0-2.674-1.196-2.674-2.674v-95.596c0-1.478,1.196-2.674,2.674-2.674h79.552
			c1.479,0,2.674,1.196,2.674,2.674v95.596C473.287,282.862,472.091,284.058,470.612,284.058z M393.734,278.71h74.204v-90.249
			h-74.204V278.71z"/>
		<path d="M461.031,275.143h-60.39c-1.478,0-2.674-1.196-2.674-2.674v-77.766c0-1.478,1.196-2.674,2.674-2.674h60.39
			c1.479,0,2.674,1.196,2.674,2.674v77.766C463.706,273.947,462.51,275.143,461.031,275.143z M403.315,269.795h55.042v-72.418
			h-55.042V269.795z"/>
		<path d="M530.835,227.903h-60.223c-1.478,0-2.674-1.196-2.674-2.674v-46.796c0-1.478,1.196-2.674,2.674-2.674h60.223
			c1.478,0,2.674,1.196,2.674,2.674v46.796C533.51,226.708,532.313,227.903,530.835,227.903z M473.287,222.555h54.875v-41.447
			h-54.875V222.555z"/>
		<path d="M411.617,227.402c-0.684,0-1.368-0.261-1.891-0.783c-1.044-1.044-1.044-2.737,0-3.781l19.22-19.22
			c1.044-1.044,2.737-1.044,3.781,0s1.044,2.737,0,3.781l-19.22,19.22C412.985,227.141,412.301,227.402,411.617,227.402z"/>
		<path d="M422.062,237.847c-0.684,0-1.368-0.261-1.891-0.783c-1.044-1.044-1.044-2.737,0-3.781l19.22-19.22
			c1.044-1.044,2.737-1.044,3.781,0c1.044,1.045,1.044,2.737,0,3.781l-19.22,19.22C423.431,237.586,422.747,237.847,422.062,237.847
			z"/>
	</g>
	<g>
		<path d="M812.382,217.792H614.655c-1.478,0-2.674-1.196-2.674-2.674v-13.287c0-1.478,1.196-2.674,2.674-2.674h197.727
			c1.478,0,2.674,1.196,2.674,2.674v13.287C815.056,216.596,813.859,217.792,812.382,217.792z M617.329,212.444h192.379v-7.939
			H617.329V212.444z"/>
		<path d="M766.704,231.745c-2.121,0-3.845-1.724-3.845-3.844c0-2.118,1.724-3.841,3.845-3.841c2.115,0,3.839,1.723,3.839,3.841
			C770.543,230.021,768.819,231.745,766.704,231.745z M766.704,226.396c-0.831,0-1.51,0.674-1.51,1.504
			c0,0.83,0.679,1.507,1.51,1.507c0.83,0,1.504-0.677,1.504-1.507C768.208,227.07,767.534,226.396,766.704,226.396z"/>
		<path d="M624.983,333.864h-10.328c-1.478,0-2.674-1.196-2.674-2.674V215.711c0-1.478,1.196-2.674,2.674-2.674h10.328
			c1.478,0,2.674,1.196,2.674,2.674V331.19C627.657,332.668,626.461,333.864,624.983,333.864z M617.329,328.516h4.979V218.385
			h-4.979V328.516z"/>
		<path d="M812.382,333.864h-10.331c-1.478,0-2.674-1.196-2.674-2.674V215.711c0-1.478,1.196-2.674,2.674-2.674h10.331
			c1.478,0,2.674,1.196,2.674,2.674V331.19C815.056,332.668,813.859,333.864,812.382,333.864z M804.726,328.516h4.982V218.385
			h-4.982V328.516z"/>
		<path d="M802.051,256.482h-70.877c-1.479,0-2.674-1.196-2.674-2.674v-38.69c0-1.478,1.195-2.674,2.674-2.674h70.877
			c1.479,0,2.675,1.196,2.675,2.674v38.69C804.726,255.286,803.529,256.482,802.051,256.482z M733.848,251.134h65.529v-33.342
			h-65.529V251.134z"/>
		<path d="M766.704,270.027c-2.121,0-3.845-1.724-3.845-3.844c0-2.118,1.724-3.841,3.845-3.841c2.115,0,3.839,1.724,3.839,3.841
			C770.543,268.304,768.819,270.027,766.704,270.027z M766.704,264.679c-0.831,0-1.51,0.674-1.51,1.504
			c0,0.831,0.679,1.507,1.51,1.507c0.83,0,1.504-0.676,1.504-1.507C768.208,265.353,767.534,264.679,766.704,264.679z"/>
		<path d="M802.051,295.174h-70.877c-1.479,0-2.674-1.196-2.674-2.674v-38.692c0-1.478,1.195-2.674,2.674-2.674h70.877
			c1.479,0,2.675,1.196,2.675,2.674V292.5C804.726,293.979,803.529,295.174,802.051,295.174z M733.848,289.827h65.529v-33.345
			h-65.529V289.827z"/>
		<path d="M766.704,308.124c-2.121,0-3.845-1.723-3.845-3.844c0-2.118,1.724-3.841,3.845-3.841c2.115,0,3.839,1.724,3.839,3.841
			C770.543,306.401,768.819,308.124,766.704,308.124z M766.704,302.776c-0.831,0-1.51,0.673-1.51,1.504s0.679,1.507,1.51,1.507
			c0.83,0,1.504-0.676,1.504-1.507S767.534,302.776,766.704,302.776z"/>
		<path d="M802.051,333.864h-70.877c-1.479,0-2.674-1.196-2.674-2.674V292.5c0-1.478,1.195-2.674,2.674-2.674h70.877
			c1.479,0,2.675,1.196,2.675,2.674v38.69C804.726,332.668,803.529,333.864,802.051,333.864z M733.848,328.516h65.529v-33.342
			h-65.529V328.516z"/>
	</g>
	<g>
		<path d="M901.361,323.427c-0.695,0-1.363-0.271-1.865-0.757c-0.506-0.494-0.799-1.17-0.81-1.877
			c-0.313-21.745,7.86-42.309,23.012-57.904c15.151-15.598,35.473-24.359,57.215-24.672l1.196-0.008
			c44.236,0,80.743,35.992,81.38,80.234c0.021,1.478-1.159,2.692-2.638,2.713l-157.454,2.272
			C901.387,323.427,901.371,323.427,901.361,323.427z M980.109,243.556l-1.118,0.008c-20.316,0.292-39.301,8.479-53.46,23.051
			C912,280.546,904.427,298.718,904.04,318.04l152.013-2.193C1054.063,275.746,1020.543,243.556,980.109,243.556z"/>
		<path d="M980.072,340.936c-11.584-0.003-21.142-9.427-21.309-21.011c-0.011-0.71,0.262-1.395,0.758-1.903
			c0.49-0.507,1.17-0.799,1.875-0.81l37.29-0.538c1.473-0.021,2.694,1.159,2.716,2.635c0.078,5.693-2.058,11.078-6.027,15.164
			c-3.969,4.084-9.291,6.377-14.989,6.46C980.375,340.933,980.088,340.936,980.072,340.936z M964.373,322.518
			c1.379,7.411,7.934,13.067,15.699,13.07v2.674l0.235-2.676c4.267-0.063,8.257-1.781,11.229-4.842
			c2.345-2.41,3.834-5.424,4.335-8.68L964.373,322.518z"/>
		<path d="M993.845,244.762c-1.478,0-2.674-1.196-2.674-2.674v-17.071h-22.176v17.071c0,1.478-1.196,2.674-2.674,2.674
			c-1.479,0-2.674-1.196-2.674-2.674v-19.745c0-1.478,1.195-2.674,2.674-2.674h27.523c1.479,0,2.674,1.196,2.674,2.674v19.745
			C996.519,243.566,995.323,244.762,993.845,244.762z"/>
		<path d="M980.083,225.018c-1.479,0-2.674-1.196-2.674-2.674v-52.992c0-1.478,1.195-2.674,2.674-2.674
			c1.478,0,2.674,1.196,2.674,2.674v52.992C982.757,223.822,981.561,225.018,980.083,225.018z"/>
	</g>
</g>
</svg>
